<?xml version="1.0" encoding="UTF-8"?>
<!-- Generator: Adobe Illustrator 15.0.2, SVG Export Plug-In . SVG Version: 6.00 Build 0)  -->
<!DOCTYPE svg PUBLIC "-//W3C//DTD SVG 1.1//EN" "http://www.w3.org/Graphics/SVG/1.1/DTD/svg11.dtd">
<svg version="1.1" xmlns="http://www.w3.org/2000/svg" xmlns:xlink="http://www.w3.org/1999/xlink" x="0px" y="0px" width="800px" height="800px" viewBox="0 0 800 800" enable-background="new 0 0 800 800" xml:space="preserve">
<g id="Layer_2">
</g>
<g id="Layer_1">
	<polygon fill="#5ACAF4" points="353.073,635.207 353.073,634.87 501.227,540.698 722.328,400.157 722.594,400.322  "/>
	<polygon fill="#EA088B" points="131.705,775.58 722.594,399.987 131.705,26.185  "/>
	<polygon fill="#29AAE1" points="131.705,494.83 501.227,259.946 131.705,26.185  "/>
	<polygon fill="#CA90AB" points="131.705,775.58 131.705,775.58 353.073,634.87  "/>
	<polygon fill="#4574A5" points="353.073,634.87 353.073,634.87 501.227,540.698  "/>
	<polygon fill="#BB1E61" points="131.705,775.58 131.705,548.121 157.597,531.657 133.16,631.925 190.936,612.174 190.936,684.574    437.316,527.965 465.738,518.249 501.227,540.698 353.073,634.87  "/>
	<polygon fill="#711952" points="190.936,684.574 190.936,612.174 437.316,527.965  "/>
	<polygon fill="#8B2578" points="577.668,438.752 474.088,330.398 500.957,313.313 638.309,400.204  "/>
	<path fill="#B7AFCA" d="M132.263,547.766l-0.559-261.474v261.829l0.264-0.169 M543.162,286.477l-41.936-26.529L262.186,108.729   l-1.207-1.262l-0.105,0.431l-128.9-81.545L543.162,286.477"/>
	<polygon fill="#A72172" points="500.957,313.313 459.014,286.779 501.227,259.946 543.162,286.477  "/>
	<path fill="#0078BD" d="M131.705,494.83V286.292l0.268-259.938l128.902,81.544l-11.306,46.385l-58.634-37.091v227.214   l-59.23-37.471V494.83z M459.014,286.779l-67.352-42.606L262.185,108.728l239.042,151.218L459.014,286.779"/>
	<polygon fill="#86194C" points="131.705,548.121 131.705,494.83 172.964,468.605 157.597,531.657  "/>
	<polygon fill="#19467F" points="131.705,494.83 131.705,306.937 190.936,344.406 190.936,394.86 172.964,468.605  "/>
	<polygon fill="#005AA2" points="201.59,351.146 190.936,344.406 190.936,117.191 249.569,154.283  "/>
	<polygon fill="#1F366A" points="190.936,394.86 190.936,344.407 201.59,351.146  "/>
	<polygon fill="#651F5F" points="474.088,330.399 442.453,297.305 459.014,286.779 500.957,313.313  "/>
	<polygon fill="#005AA2" points="442.453,297.305 391.662,244.172 459.014,286.778  "/>
	<polygon fill="#BE2D90" points="133.16,631.925 157.597,531.657 190.936,510.456 190.936,612.174  "/>
	<polygon fill="#BC4A9A" points="465.738,518.249 459.154,514.083 577.668,438.752 607.381,469.837  "/>
	<polygon fill="#BE2D90" points="437.316,527.965 459.154,514.083 465.738,518.249  "/>
	<polygon fill="#8C4499" points="459.154,514.083 321.837,427.215 474.088,330.398 577.67,438.752  "/>
	<polygon fill="#842884" points="190.936,612.174 190.936,510.456 321.837,427.215 459.154,514.083 437.316,527.965  "/>
	<polygon fill="#9D247F" points="157.597,531.657 172.964,468.605 190.936,457.178 190.936,510.456  "/>
	<polygon fill="#3666AF" points="172.963,468.605 190.936,394.861 190.936,457.178  "/>
	<polygon fill="#C7D6ED" points="262.186,108.728 260.875,107.898 260.979,107.467  "/>
	<polygon fill="#1EADE4" points="391.662,244.172 249.569,154.283 260.875,107.899 262.185,108.728  "/>
	<polygon fill="#772B8F" points="321.837,427.215 279.856,400.658 442.451,297.305 474.088,330.399  "/>
	<polygon fill="#377EC0" points="279.857,400.658 201.59,351.146 249.569,154.284 391.662,244.171 442.453,297.304  "/>
	<polygon fill="#61236A" points="190.936,510.456 190.936,457.178 279.856,400.657 321.837,427.215  "/>
	<polygon fill="#2752A3" points="190.936,457.178 190.936,394.86 201.59,351.146 279.856,400.658  "/>
	<g>
		<defs>
			<rect id="SVGID_1_" x="35.325" y="-91.6" width="730.628" height="1033.31"/>
		</defs>
		<clipPath id="SVGID_2_">
			<use xlink:href="#SVGID_1_" overflow="visible"/>
		</clipPath>
		<path clip-path="url(#SVGID_2_)" fill="#FFFFFF" d="M262.885,543.99l-111.437-1.017l-0.034-286.793l115.241,1.003l56.941,90.98    l56.656-90.001l113.788,0.985l0.059,286.956c-15.348-0.139-110.007-1.005-110.007-1.005l-0.078-90.513l-60.376,95.902    L262.933,453.5L262.885,543.99z"/>
	</g>
</g>
</svg>